<svg xmlns="http://www.w3.org/2000/svg" width="245.51" height="64.361" viewBox="0 0 245.51 64.361">
  <g transform="translate(90.069 11.701)">
    <path
      d="M148.2,46.557a8.907,8.907,0,0,1-9.087-9.146,9.059,9.059,0,1,1,18.118,0,8.9,8.9,0,0,1-9.031,9.146m9.031-23.812v4.2a12.8,12.8,0,0,0-10.295-4.889c-8.284,0-14.438,6.615-14.438,15.357s6.154,15.358,14.438,15.358a12.8,12.8,0,0,0,10.295-4.889v4.2h6.442V22.745Z"
      transform="translate(-90.069 -11.701)" fill="#000001" fill-rule="evenodd"/>
    <path
      d="M200.531,52.769c6.845,0,12.252-3.336,12.252-9.433,0-6.384-5.868-7.88-10.584-8.915-3.566-.806-6.384-1.5-6.384-3.8,0-2.013,2.358-2.991,5.234-2.991A11.6,11.6,0,0,1,208.7,30.51l3.394-4.545a17.333,17.333,0,0,0-11.159-3.911c-6.326,0-11.675,2.992-11.675,9.031,0,6.442,5.924,7.937,10.641,9.03,3.451.8,6.326,1.554,6.326,3.854,0,2.07-2.53,3.221-5.809,3.221a12.29,12.29,0,0,1-8.742-3.451l-3.337,4.544a18.093,18.093,0,0,0,12.194,4.486"
      transform="translate(-90.069 -11.701)" fill="#000001" fill-rule="evenodd"/>
    <path
      d="M184.607,45.637h-5.513a2.776,2.776,0,0,1-2.769-2.769V28.612h4.049a4.245,4.245,0,0,0,4.233-4.233V22.745h-8.282V15.153h-6.442V42.868a9.237,9.237,0,0,0,9.211,9.211h5.513Z"
      transform="translate(-90.069 -11.701)" fill="#000001" fill-rule="evenodd"/>
    <path
      d="M214.033,22.745,226,50.486l.409.947L224.9,54.88l-3.47,7.933h6.556l1.328-3.039L233,51.344l12.506-28.6h-6.556l-4.153,9.5-4.666,10.671-.426.973-.789-1.831-6.509-15.086-1.823-4.224Z"
      transform="translate(-90.069 -11.701)" fill="#000001" fill-rule="evenodd"/>
    <path
      d="M123.415,38.393l-.113.236c.038-.078.076-.157.113-.236m.694-1.8c-.027.087-.054.173-.083.259.029-.086.056-.172.083-.259M110.891,52.769c-11.848,0-20.822-8.857-20.822-20.533S99.043,11.7,110.891,11.7a20.532,20.532,0,0,1,18.132,10.066l-6.031,3.482.06.11a13.884,13.884,0,0,0-25.965,6.877,13.883,13.883,0,0,0,25.966,6.874l-.061.112,6.031,3.482a20.53,20.53,0,0,1-18.132,10.065"
      transform="translate(-90.069 -11.701)" fill="#000001" fill-rule="evenodd"/>
  </g>
  <path d="M3.4,28.812a3.4,3.4,0,1,1-3.4,3.4,3.4,3.4,0,0,1,3.4-3.4" fill="#FFC718" fill-rule="evenodd"/>
  <path
    d="M71.258,32.181v24.15a8.054,8.054,0,0,1-8.031,8.03h0a8.054,8.054,0,0,1-8.031-8.03V32.237l0-.056,0-.055v-.1A8.055,8.055,0,0,1,63.227,24h0a8.055,8.055,0,0,1,8.031,8.031v.15Z"
    fill="#E6B100" fill-rule="evenodd"/>
  <path
    d="M63.227,0h0a8.054,8.054,0,0,1,8.03,8.031V32.125a8.055,8.055,0,0,1-8.03,8.031h0A8.055,8.055,0,0,1,55.2,32.125V8.031A8.055,8.055,0,0,1,63.227,0"
    fill="#4DD0C6" fill-rule="evenodd"/>
  <path
    d="M40.526,9.508h0a8.055,8.055,0,0,1,11.357,0L68.921,26.545a8.055,8.055,0,0,1,0,11.357h0a8.054,8.054,0,0,1-11.357,0L40.526,20.865a8.055,8.055,0,0,1,0-11.357"
    fill="#8B6BFF" fill-rule="evenodd"/>
  <path
    d="M68.941,26.526a8.055,8.055,0,0,1,0,11.357L51.9,54.92a8.055,8.055,0,0,1-11.357,0h0a8.053,8.053,0,0,1,0-11.356L57.583,26.526a8.054,8.054,0,0,1,11.358,0"
    fill="#FF6391" fill-rule="evenodd"/>
  <path
    d="M69.223,37.585l-.017.019-.122.131-.144.148-.02.019a8.055,8.055,0,0,1-11.357,0l-5.677-5.678,5.7-5.7a8.053,8.053,0,0,1,10.88-.439l.459.458a8.062,8.062,0,0,1,.3,11.04"
    fill="#930A5B" fill-rule="evenodd"/>
  <path d="M34.076,25.835A6.378,6.378,0,1,1,27.7,32.213a6.379,6.379,0,0,1,6.378-6.378" fill="#930A5B"
        fill-rule="evenodd"/>
  <path d="M17.249,27.207a5.007,5.007,0,1,1-5.006,5.007,5.006,5.006,0,0,1,5.006-5.007" fill="#FF6391"
        fill-rule="evenodd"/>
</svg>
